<svg width="126" height="126" viewBox="0 0 126 126" fill="none" xmlns="http://www.w3.org/2000/svg">
<path d="M106.75 94.25C114.313 94.25 125.5 89.25 125.5 75.5C125.5 61.75 114.313 56.75 106.75 56.75H94.25V44.25H106.75C120.5 44.25 125.5 33.0625 125.5 25.5C125.5 11.75 114.313 6.75 106.75 6.75H94.25V0.5H88V6.75H38V0.5H31.75V6.75H0.5V19.25H31.75V31.75H19.25C11.6875 31.75 0.5 36.75 0.5 50.5C0.5 64.25 11.6875 69.25 19.25 69.25H31.75V81.75H19.25C11.6875 81.75 0.5 86.75 0.5 100.5C0.5 114.25 11.6875 119.25 19.25 119.25H31.75V125.5H38V119.25H88V125.5H94.25V119.25H125.5V106.75H94.25V94.25H106.75ZM106.75 69.25C109.562 69.25 113 70.4375 113 75.5C113 80.5625 109.562 81.75 106.75 81.75H94.25V69.25H106.75ZM88 56.75H38V44.25H88V56.75ZM106.75 19.25C109.562 19.25 113 20.5 113 25.5C113 28.3125 111.813 31.75 106.75 31.75H94.25V19.25H106.75ZM38 19.25H88V31.75H38V19.25ZM19.25 56.75C16.4375 56.75 13 55.5625 13 50.5C13 45.4375 16.4375 44.25 19.25 44.25H31.75V56.75H19.25ZM38 69.25H88V81.75H38V69.25ZM19.25 106.75C16.4375 106.75 13 105.563 13 100.5C13 95.4375 16.4375 94.25 19.25 94.25H31.75V106.75H19.25ZM88 106.75H38V94.25H88V106.75Z" fill="#D7DCDE"/>
</svg>
