<svg width="150" height="132" viewBox="0 0 150 132" fill="none" xmlns="http://www.w3.org/2000/svg">
<path d="M11.6045 48.6563L21.9141 19.21C25.8604 7.92774 36.5039 0.375 48.457 0.375H101.543C113.496 0.375 124.131 7.92774 128.086 19.21L138.398 48.6563C145.195 51.4688 150 58.1777 150 66V122.25C150 127.436 145.811 131.625 140.625 131.625H131.25C126.064 131.625 121.875 127.436 121.875 122.25V108.188H28.125V122.25C28.125 127.436 23.9268 131.625 18.75 131.625H9.375C4.19824 131.625 0 127.436 0 122.25V66C0 58.1777 4.79297 51.4688 11.6045 48.6563ZM31.9629 47.25H118.037L110.391 25.3945C109.072 21.6445 105.527 19.125 101.543 19.125H48.457C44.4727 19.125 40.9277 21.6445 39.6094 25.3945L31.9629 47.25ZM28.125 66C22.9482 66 18.75 70.1895 18.75 75.375C18.75 80.5605 22.9482 84.75 28.125 84.75C33.3105 84.75 37.5 80.5605 37.5 75.375C37.5 70.1895 33.3105 66 28.125 66ZM121.875 84.75C127.061 84.75 131.25 80.5605 131.25 75.375C131.25 70.1895 127.061 66 121.875 66C116.689 66 112.5 70.1895 112.5 75.375C112.5 80.5605 116.689 84.75 121.875 84.75Z" fill="#D7DCDE"/>
</svg>
